<?xml version="1.0" encoding="utf-8"?>
<!-- Generator: Adobe Illustrator 24.0.1, SVG Export Plug-In . SVG Version: 6.00 Build 0)  -->
<svg version="1.1" id="Layer_1" xmlns="http://www.w3.org/2000/svg" xmlns:xlink="http://www.w3.org/1999/xlink" x="0px" y="0px"
	 viewBox="0 0 350 75" style="enable-background:new 0 0 350 75;" xml:space="preserve">
<style type="text/css">
	.st0{fill:#C49A6C;}
	.st1{fill:#BA9163;}
	.st2{fill:#B3895C;}
	.st3{fill:#AC8255;}
	.st4{fill:#A67B4F;}
	.st5{fill:#9F7448;}
	.st6{fill:#986E42;}
	.st7{fill:#92673C;}
	.st8{fill:#8B6136;}
	.st9{fill:#855B31;}
	.st10{fill:#7E552B;}
	.st11{fill:#784F26;}
	.st12{fill:#724921;}
	.st13{fill:#6C441C;}
	.st14{fill:#663E18;}
	.st15{fill:#603913;}
	.st16{fill:#3C2415;}
	.st17{fill:#402615;}
	.st18{fill:#442915;}
	.st19{fill:#482B15;}
	.st20{fill:#4C2D15;}
	.st21{fill:#503014;}
	.st22{fill:#543214;}
	.st23{fill:#583413;}
	.st24{fill:#5C3613;}
	.st25{fill:#754C29;}
</style>
<g>
	<g>
		<g>
			<circle class="st0" cx="300.46" cy="37.41" r="2.51"/>
			<circle class="st1" cx="300.9" cy="47" r="2.72"/>
			<circle class="st2" cx="310.04" cy="50.82" r="2.94"/>
			<circle class="st3" cx="318.35" cy="45.56" r="3.15"/>
			<circle class="st4" cx="319.94" cy="35.69" r="3.37"/>
			<circle class="st5" cx="314.38" cy="27.43" r="3.58"/>
			<circle class="st6" cx="304.6" cy="24.57" r="3.79"/>
			<circle class="st7" cx="295.19" cy="27.65" r="4.01"/>
			<circle class="st8" cx="288.9" cy="35.84" r="4.22"/>
			<circle class="st9" cx="287.5" cy="45.83" r="4.43"/>
			<circle class="st10" cx="290.78" cy="55.21" r="4.65"/>
			<circle class="st11" cx="298.31" cy="62.25" r="4.86"/>
			<circle class="st12" cx="308.11" cy="65.47" r="5.07"/>
			<circle class="st13" cx="318.08" cy="64.78" r="5.29"/>
			<circle class="st14" cx="327.09" cy="60.45" r="5.5"/>
			<circle class="st15" cx="334.04" cy="52.77" r="5.72"/>
		</g>
		<g>
			<circle class="st16" cx="281.49" cy="24.31" r="5.91"/>
			<circle class="st17" cx="288.79" cy="16.7" r="5.89"/>
			<circle class="st18" cx="297.78" cy="11.93" r="5.87"/>
			<circle class="st19" cx="307.7" cy="10.12" r="5.85"/>
			<circle class="st20" cx="317.79" cy="11.42" r="5.83"/>
			<circle class="st21" cx="327.31" cy="15.96" r="5.8"/>
			<circle class="st22" cx="334.57" cy="23.5" r="5.78"/>
			<circle class="st23" cx="338.24" cy="32.91" r="5.76"/>
			<circle class="st24" cx="338.12" cy="43.01" r="5.74"/>
			<circle class="st15" cx="333.99" cy="52.62" r="5.72"/>
		</g>
	</g>
	<g>
		<g>
			<path class="st16" d="M28.14,62.84c-1.2,4.63-4.6,7.51-11.3,7.51c-6.93,0-9.6-3.69-9.6-8.13c0-4.63,2.62-11.22,12.03-11.22
				c6.75,0,9.57,3.14,9.6,7.43h-7.48c0.13-1.78-0.37-2.98-2.04-2.98c-3.11,0-3.98,5.02-3.98,7.11c0,2.07,0.76,3.11,2.22,3.11
				c1.36,0,2.48-0.78,3.24-2.82H28.14z"/>
			<path class="st16" d="M46.05,65.06c-0.24,1.1-0.81,4-0.94,4.81h-7.04c0.03-0.31,0.13-0.89,0.21-1.41
				c-1.05,1.02-2.48,1.78-4.86,1.78c-2.69,0-4.32-1.49-4.32-3.9c0-3.58,2.9-5,6.51-5.34c1.2-0.13,2.75-0.18,4.24-0.21l0.08-0.39
				c0.16-0.73-0.1-1.2-1.05-1.2c-0.81,0-1.2,0.42-1.41,1.15h-6.59c0.34-1.86,1.7-4.81,8.37-4.81c6.7,0,8.26,2.67,7.64,5.62
				L46.05,65.06z M39.19,63.91c-0.65,0-1.15,0.03-1.73,0.13c-0.68,0.13-1.05,0.55-1.05,1.2c0,0.47,0.39,0.84,0.89,0.84
				c0.84,0,1.49-0.34,1.83-1.96L39.19,63.91z"/>
			<path class="st16" d="M47.71,69.88l4.05-19.12h7.58L55.3,69.88H47.71z"/>
			<path class="st16" d="M75.67,64.57c-0.73,2.62-2.54,5.68-9.26,5.68c-5.68,0-7.58-2.72-7.58-6.02c0-3.82,2.25-8.68,9.57-8.68
				c7.51,0,7.9,4,7.85,5.81h-6.85c0.16-1.15,0.16-2.12-0.78-2.12c-1.52,0-2.28,4.08-2.28,5.94c0,1.02,0.26,1.44,0.81,1.44
				c0.71,0,1.18-0.65,1.62-2.04H75.67z"/>
			<path class="st16" d="M94.55,65.48c-0.55,2.56-0.71,3.61-0.84,4.39h-7.48c0-0.29,0.1-0.97,0.16-1.33
				c-0.86,0.84-2.28,1.7-4.68,1.7c-3.61,0-5-1.91-4.18-5.68l1.83-8.66h7.61l-1.75,8.29c-0.24,1.13-0.1,1.67,0.6,1.67
				c0.76,0,1.18-0.52,1.57-2.3L89,55.91h7.58L94.55,65.48z"/>
			<path class="st16" d="M96.32,69.88l4.05-19.12h7.58l-4.05,19.12H96.32z"/>
			<path class="st16" d="M124.09,65.06c-0.24,1.1-0.81,4-0.94,4.81h-7.04c0.03-0.31,0.13-0.89,0.21-1.41
				c-1.05,1.02-2.48,1.78-4.86,1.78c-2.69,0-4.32-1.49-4.32-3.9c0-3.58,2.9-5,6.51-5.34c1.2-0.13,2.75-0.18,4.24-0.21l0.08-0.39
				c0.16-0.73-0.1-1.2-1.05-1.2c-0.81,0-1.2,0.42-1.41,1.15h-6.59c0.34-1.86,1.7-4.81,8.37-4.81c6.7,0,8.26,2.67,7.64,5.62
				L124.09,65.06z M117.24,63.91c-0.65,0-1.15,0.03-1.73,0.13c-0.68,0.13-1.05,0.55-1.05,1.2c0,0.47,0.39,0.84,0.89,0.84
				c0.84,0,1.49-0.34,1.83-1.96L117.24,63.91z"/>
			<path class="st16" d="M127.67,55.91h2.01l0.86-3.66h7.58l-0.86,3.66h2.2l-0.89,4.21h-2.17l-1.02,4.47
				c-0.16,0.76,0.03,1.18,0.99,1.18c0.31,0,0.65-0.03,0.86-0.05l-0.86,4.13c-1.39,0.24-2.69,0.31-3.9,0.31
				c-4.81,0-5.41-2.01-4.81-4.89l1.15-5.15h-2.04L127.67,55.91z"/>
			<path class="st16" d="M157.71,61.95c0,4.63-2.98,8.29-10.1,8.29c-5.99,0-8.06-2.8-8.06-6.17c0-4.21,2.72-8.53,9.86-8.53
				C154.55,55.54,157.71,58,157.71,61.95z M147.04,65.04c0,0.99,0.31,1.36,0.86,1.36c1.46,0,2.3-4.18,2.3-5.81
				c0-0.79-0.26-1.2-0.92-1.2C147.8,59.39,147.04,63.6,147.04,65.04z"/>
			<path class="st16" d="M160.27,60.7c0.52-2.46,0.84-4,0.94-4.79h7.11c-0.03,0.55-0.08,1.49-0.31,2.59
				c0.92-1.54,2.41-2.96,5.28-2.96L171.83,62c-2.38-0.1-4.29,0.18-4.86,2.85l-1.05,5.02h-7.58L160.27,60.7z"/>
			<path class="st25" d="M198.61,69.88h-4.94c-0.13-0.42-0.16-1.02-0.16-1.49c-1.18,1.2-2.8,1.96-5.88,1.96
				c-5.75,0-8.06-3.77-8.06-8c0-5.54,3.64-11.35,12.03-11.35c5.57,0,9.26,2.09,9.62,6.15h-7.38c-0.08-0.89-0.6-1.7-2.2-1.7
				c-2.9,0-3.95,4.42-3.95,6.8c0,2.01,0.63,3.43,2.25,3.43c1.78,0,2.3-1.2,2.54-1.91l0.03-0.08h-2.72l1.52-4.73h9.6L198.61,69.88z"
				/>
			<path class="st25" d="M212.98,51.46l-2.41,11.17c-0.5,2.25,0.65,2.72,1.57,2.72c1.78,0,2.3-1.18,2.62-2.72l2.41-11.17h7.66
				l-2.38,11.06c-1.07,5.13-3.29,7.82-11.01,7.82c-6.62,0-9.63-2.56-8.45-7.98l2.33-10.91H212.98z"/>
			<path class="st25" d="M233.09,63.31l-1.36,6.56h-7.53l3.87-18.41h11.22c4.58,0,6.8,2.12,6.8,4.94c0,2.62-1.65,4.29-4.18,4.94
				c1.28,0.68,2.46,2.01,1.75,5.28c-0.24,1.1-0.45,2.33-0.39,3.24h-7.3c-0.21-0.71-0.1-2.04,0.31-3.92
				c0.42-1.83,0.31-2.64-1.49-2.64H233.09z M233.95,59.21h2.12c1.41,0,2.12-0.78,2.12-1.8c0-0.92-0.52-1.41-1.57-1.41h-1.99
				L233.95,59.21z"/>
			<path class="st25" d="M257.2,51.46l-2.41,11.17c-0.5,2.25,0.65,2.72,1.57,2.72c1.78,0,2.3-1.18,2.62-2.72l2.41-11.17h7.66
				l-2.38,11.06c-1.07,5.13-3.29,7.82-11.01,7.82c-6.62,0-9.63-2.56-8.45-7.98l2.33-10.91H257.2z"/>
		</g>
	</g>
	<g>
		<g>
			<path class="st16" d="M23.15,26.05l-2.37,11.42H7.68l6.73-32.03h19.52c7.96,0,11.83,3.69,11.83,8.6c0,4.55-2.87,7.46-7.28,8.6
				c2.23,1.18,4.28,3.5,3.05,9.19c-0.41,1.91-0.77,4.05-0.68,5.64H28.16c-0.36-1.23-0.18-3.55,0.55-6.83
				c0.73-3.19,0.55-4.6-2.59-4.6H23.15z M24.65,18.91h3.69c2.46,0,3.69-1.36,3.69-3.14c0-1.59-0.91-2.46-2.73-2.46h-3.46
				L24.65,18.91z"/>
			<path class="st16" d="M77.76,23.69c0,8.05-5.19,14.42-17.56,14.42c-10.42,0-14.01-4.87-14.01-10.74
				c0-7.33,4.73-14.83,17.15-14.83C72.25,12.54,77.76,16.82,77.76,23.69z M59.19,29.06c0,1.73,0.55,2.37,1.5,2.37
				c2.55,0,4-7.28,4-10.1c0-1.36-0.46-2.09-1.59-2.09C60.51,19.23,59.19,26.55,59.19,29.06z"/>
			<path class="st16" d="M110.25,29.83c-0.96,4.46-1.23,6.28-1.46,7.64H95.78c0-0.5,0.18-1.68,0.27-2.32
				c-1.5,1.46-3.96,2.96-8.14,2.96c-6.28,0-8.69-3.32-7.28-9.87l3.19-15.06h13.24L94,27.6c-0.41,1.96-0.18,2.91,1.05,2.91
				c1.32,0,2.05-0.91,2.73-4l2.82-13.33h13.2L110.25,29.83z"/>
			<path class="st16" d="M116.84,20.82c1.05-5.05,1.37-6.6,1.55-7.64h12.83c0,0.32-0.09,1.46-0.18,2.18c2-1.59,4.28-2.82,8.05-2.82
				c6.32,0,8.65,3.78,7.37,9.78l-3.19,15.15h-13.2L133.13,23c0.41-2,0.09-2.78-1.09-2.78c-0.96,0-2,0.55-2.59,3.46l-2.91,13.79
				h-13.2L116.84,20.82z"/>
			<path class="st16" d="M184.92,4.21l-5.46,25.71c-0.77,3.69-1.23,6.1-1.41,7.55h-13.01c0.05-0.64,0.05-1.32,0.23-2
				c-2.14,2-4.6,2.64-7.51,2.64c-5.55,0-8.37-4.23-8.37-9.92c0-7.37,4.23-15.47,13.74-15.65c2.59-0.05,5,0.59,6.42,1.82l2.18-10.15
				H184.92z M162.44,28.65c0,1.36,0.55,2.27,1.64,2.27c1.87,0,2.78-2.41,3.55-5.73c0.77-3.32,0.91-5.55-1.09-5.55
				C163.62,19.64,162.44,26.33,162.44,28.65z"/>
			<path class="st16" d="M187.74,13.18h13.2l-5.14,24.3h-13.2L187.74,13.18z M189.6,4.21h13.24l-1.5,7.14H188.1L189.6,4.21z"/>
			<path class="st16" d="M203.98,20.82c1.05-5.05,1.37-6.6,1.55-7.64h12.83c0,0.32-0.09,1.46-0.18,2.18c2-1.59,4.28-2.82,8.05-2.82
				c6.33,0,8.65,3.78,7.37,9.78l-3.18,15.15h-13.2L220.27,23c0.41-2,0.09-2.78-1.09-2.78c-0.96,0-2,0.55-2.59,3.46l-2.91,13.79
				h-13.2L203.98,20.82z"/>
			<path class="st16" d="M265.73,34.24c-1.96,9.19-6.37,12.79-17.38,12.79c-12.33,0-13.79-5.55-13.92-8.42h12.24
				c0,0.64,0.23,1.91,2,1.91c1.73,0,2.73-0.86,3.59-4.37l0.46-1.87c-2,1.91-4.32,2.46-7.42,2.46c-6.01,0-8.74-4.14-8.74-9.42
				c0-6.6,3.96-14.79,13.01-14.79c3.41,0,5.96,1.05,7.1,2.68c0.32-0.91,0.55-1.64,0.73-2.05h12.92c-0.55,1.91-1.09,4.32-1.82,7.87
				L265.73,34.24z M250.17,27.1c0,1.87,0.59,2.41,1.64,2.41c1.73,0,2.68-2.32,3.32-5.1c0.5-2.23,0.82-4.64-1.18-4.64
				C251.31,19.77,250.17,25.37,250.17,27.1z"/>
		</g>
	</g>
	<g>
		<g>
			<circle class="st0" cx="173.2" cy="66.94" r="0.24"/>
			<circle class="st1" cx="173.25" cy="67.86" r="0.26"/>
			<circle class="st2" cx="174.12" cy="68.23" r="0.28"/>
			<circle class="st3" cx="174.92" cy="67.72" r="0.3"/>
			<circle class="st4" cx="175.07" cy="66.78" r="0.32"/>
			<circle class="st5" cx="174.54" cy="65.99" r="0.34"/>
			<circle class="st6" cx="173.6" cy="65.72" r="0.36"/>
			<circle class="st7" cx="172.7" cy="66.01" r="0.38"/>
			<circle class="st8" cx="172.1" cy="66.79" r="0.4"/>
			<circle class="st9" cx="171.96" cy="67.75" r="0.42"/>
			<circle class="st10" cx="172.28" cy="68.65" r="0.44"/>
			<circle class="st11" cx="173" cy="69.32" r="0.47"/>
			<circle class="st12" cx="173.94" cy="69.63" r="0.49"/>
			<circle class="st13" cx="174.89" cy="69.56" r="0.51"/>
			<circle class="st14" cx="175.75" cy="69.15" r="0.53"/>
			<circle class="st15" cx="176.42" cy="68.41" r="0.55"/>
		</g>
		<g>
			<circle class="st16" cx="171.39" cy="65.69" r="0.57"/>
			<circle class="st17" cx="172.09" cy="64.96" r="0.56"/>
			<circle class="st18" cx="172.95" cy="64.51" r="0.56"/>
			<circle class="st19" cx="173.9" cy="64.33" r="0.56"/>
			<circle class="st20" cx="174.86" cy="64.46" r="0.56"/>
			<circle class="st21" cx="175.77" cy="64.89" r="0.56"/>
			<circle class="st22" cx="176.47" cy="65.61" r="0.55"/>
			<circle class="st23" cx="176.82" cy="66.51" r="0.55"/>
			<circle class="st24" cx="176.81" cy="67.48" r="0.55"/>
			<circle class="st15" cx="176.41" cy="68.4" r="0.55"/>
		</g>
	</g>
</g>
</svg>
