<?xml version="1.0" encoding="utf-8"?>
<!-- Generator: Adobe Illustrator 24.0.1, SVG Export Plug-In . SVG Version: 6.00 Build 0)  -->
<svg version="1.1" id="Layer_1" xmlns="http://www.w3.org/2000/svg" xmlns:xlink="http://www.w3.org/1999/xlink" x="0px" y="0px"
	 viewBox="0 0 48 48" style="enable-background:new 0 0 48 48;" xml:space="preserve">
<style type="text/css">
	.st0{fill:#C49A6C;}
	.st1{fill:#BA9163;}
	.st2{fill:#B3895C;}
	.st3{fill:#AC8255;}
	.st4{fill:#A67B4F;}
	.st5{fill:#9F7448;}
	.st6{fill:#986E42;}
	.st7{fill:#92673C;}
	.st8{fill:#8B6136;}
	.st9{fill:#855B31;}
	.st10{fill:#7E552B;}
	.st11{fill:#784F26;}
	.st12{fill:#724921;}
	.st13{fill:#6C441C;}
	.st14{fill:#663E18;}
	.st15{fill:#603913;}
	.st16{fill:#3C2415;}
	.st17{fill:#402615;}
	.st18{fill:#442915;}
	.st19{fill:#482B15;}
	.st20{fill:#4C2D15;}
	.st21{fill:#503014;}
	.st22{fill:#543214;}
	.st23{fill:#583413;}
	.st24{fill:#5C3613;}
</style>
<g>
	<g>
		<circle class="st0" cx="17.55" cy="23.68" r="1.72"/>
		<circle class="st1" cx="17.85" cy="30.26" r="1.87"/>
		<circle class="st2" cx="24.13" cy="32.88" r="2.02"/>
		<circle class="st3" cx="29.83" cy="29.27" r="2.16"/>
		<circle class="st4" cx="30.93" cy="22.49" r="2.31"/>
		<circle class="st5" cx="27.11" cy="16.82" r="2.46"/>
		<circle class="st6" cx="20.39" cy="14.86" r="2.6"/>
		<circle class="st7" cx="13.93" cy="16.97" r="2.75"/>
		<circle class="st8" cx="9.61" cy="22.6" r="2.9"/>
		<circle class="st9" cx="8.65" cy="29.46" r="3.04"/>
		<circle class="st10" cx="10.9" cy="35.9" r="3.19"/>
		<circle class="st11" cx="16.07" cy="40.73" r="3.34"/>
		<circle class="st12" cx="22.81" cy="42.94" r="3.49"/>
		<circle class="st13" cx="29.65" cy="42.47" r="3.63"/>
		<circle class="st14" cx="35.84" cy="39.5" r="3.78"/>
		<circle class="st15" cx="40.62" cy="34.22" r="3.93"/>
	</g>
	<g>
		<circle class="st16" cx="4.52" cy="14.68" r="4.06"/>
		<circle class="st17" cx="9.54" cy="9.46" r="4.05"/>
		<circle class="st18" cx="15.71" cy="6.18" r="4.03"/>
		<circle class="st19" cx="22.52" cy="4.93" r="4.02"/>
		<circle class="st20" cx="29.45" cy="5.83" r="4"/>
		<circle class="st21" cx="35.99" cy="8.94" r="3.99"/>
		<circle class="st22" cx="40.97" cy="14.12" r="3.97"/>
		<circle class="st23" cx="43.5" cy="20.58" r="3.96"/>
		<circle class="st24" cx="43.42" cy="27.52" r="3.94"/>
		<circle class="st15" cx="40.58" cy="34.12" r="3.93"/>
	</g>
</g>
</svg>
